<svg xmlns="http://www.w3.org/2000/svg" width="38" height="31" viewBox="0 0 38 31">
    <g fill="none" fill-rule="evenodd">
        <g fill="#FFF" fill-rule="nonzero">
            <g>
                <path d="M3.982 7.399H2.075v21.09c2.62-.67 5.25-1.531 7.896-1.55 2.445-.015 4.89.323 7.34 1.144-1.522-1.22-3.22-2.117-5.03-2.7-2.282-.737-4.748-.98-7.275-.767-.572.045-1.07-.374-1.12-.937-.006-.061-.006-.119 0-.177L3.983 7.4zM31.848 5.77c0-.051.004-.103.013-.155V2.233c-2.399-.225-4.87.037-7.03.846-2.016.757-3.757 2.495-4.888 4.277v18.771c1.759-1.162 3.557-2.117 5.405-2.768 2.107-.742 4.271-1.094 6.513-.918V5.925c-.006-.048-.013-.1-.013-.155zm4.899-.47c.571 0 1.036.46 1.036 1.025L38 29.568c0 .566-.464 1.025-1.036 1.025-.117 0-.23-.018-.335-.055-2.89-.818-5.98-1.54-8.824-1.558-2.773-.018-5.544.636-8.326 1.85-.173.112-.379.173-.59.17-.21.003-.416-.058-.591-.17-2.78-1.217-5.553-1.868-8.327-1.85-2.844.018-5.712 1.031-8.606 1.85-.104.036-.218.054-.335.054-.566.003-1.03-.456-1.03-1.022V6.325C0 5.76.464 5.3 1.036 5.3h2.955l.018-3.98c.004-.492.354-.9.825-.997C7.56-.24 10.875-.1 13.78 1.001c2.008.76 3.831 2.547 5.163 4.3 1.343-1.634 3.139-3.381 5.16-4.139C26.863.125 30.05-.124 33.047.311c.516.073.885.514.885 1.013V5.3h2.814zm-8.933 21.636c2.648.016 5.277.711 7.896 1.38V7.156h-1.774v16.438c0 .565-.464 1.025-1.036 1.025-.083 0-.163-.01-.24-.028-2.269-.353-4.467-.06-6.614.697-1.728.611-3.425 1.524-5.098 2.64 2.291-.712 4.579-1.004 6.866-.992zM17.871 7.37c-1.086-1.895-2.842-3.7-4.825-4.452-2.247-.851-4.772-1.043-6.973-.733l-.117 20.32c2.401-.084 4.75.217 6.961.932 1.759.565 3.425 1.396 4.954 2.494V7.369z" transform="translate(-188.000000, -1447.000000) translate(188.000000, 1447.000000)"/>
            </g>
        </g>
    </g>
</svg>
