<svg xmlns="http://www.w3.org/2000/svg" width="35" height="36" viewBox="0 0 35 36">
    <g fill="none" fill-rule="evenodd">
        <g stroke="#FFF" stroke-width="2.652">
            <g>
                <path d="M29.607 6.787c.886.372 1.441 1.26 1.39 2.225C30.704 14.492 28.737 32 15.5 32 2.264 32 .295 14.492.003 9.012c-.05-.965.504-1.853 1.39-2.225l13.23-6.61c.561-.236 1.193-.236 1.752 0l13.232 6.61z" transform="translate(-189.000000, -1365.000000) translate(191.000000, 1367.000000)"/>
                <path d="M16 8c-2.266 0-4 1.733-4 4 0 2.134 1.734 4 4 4s4-1.866 4-4c0-2.267-1.734-4-4-4zM5 26s3.433-7 10.716-7C23 19 26 26 26 26" transform="translate(-189.000000, -1365.000000) translate(191.000000, 1367.000000)"/>
            </g>
        </g>
    </g>
</svg>
