<svg xmlns="http://www.w3.org/2000/svg" xmlns:xlink="http://www.w3.org/1999/xlink" width="39" height="39" viewBox="0 0 39 39">
    <defs>
        <path id="e4ywkoaspa" d="M34.097 24.523c.755 0 1.378.569 1.463 1.301l.01.172v4.419c0 2.353-1.84 4.276-4.16 4.41l-.259.008H7.585c-2.353 0-4.276-1.84-4.41-4.159l-.008-.26v-4.418c0-.813.66-1.473 1.473-1.473.755 0 1.377.569 1.462 1.301l.01.172v4.419c0 .755.569 1.378 1.301 1.463l.172.01h23.566c.756 0 1.378-.569 1.463-1.302l.01-.171v-4.419c0-.813.66-1.473 1.473-1.473zM19.404 3.167c.755 0 1.378.568 1.463 1.3l.01.173v17.53l5.506-6.006c.55-.6 1.482-.64 2.081-.09.554.507.63 1.34.207 1.936l-.116.144-8.102 8.837c-.542.592-1.447.634-2.04.127l-.132-.127-8.1-8.837c-.549-.6-.508-1.531.091-2.08.554-.508 1.39-.513 1.948-.039l.133.129 5.578 6.085V4.64c0-.813.66-1.472 1.473-1.472z"/>
    </defs>
    <g fill="none" fill-rule="evenodd">
        <g>
            <g>
                <g>
                    <g transform="translate(-188.000000, -1604.000000) translate(188.000000, 1604.000000)">
                        <path d="M0 38L38 38 38 0 0 0z"/>
                        <mask id="s5vngwmp5b" fill="#fff">
                            <use xlink:href="#e4ywkoaspa"/>
                        </mask>
                        <use fill="#FFF" fill-rule="nonzero" xlink:href="#e4ywkoaspa"/>
                        <path fill="#FFF" fill-rule="nonzero" d="M0 38L38 38 38 0 0 0z" mask="url(#s5vngwmp5b)"/>
                    </g>
                </g>
            </g>
        </g>
    </g>
</svg>
